# xmcd CD database file
#
# Track frame offsets:
#	150
#	16712
#	41451
#	51706
#	69518
#	100554
#	111047
#	129614
#	150894
#	176462
#	189398
#	208048
#
# Disc length: 3196 seconds
#
# Revision: 0
# Processed by: cddbd v1.5.2PL0 Copyright (c) Steve Scherf et al.
# Submitted via: CDex 1.70beta2
#
DISCID=940c7a0c
DTITLE=The Spanish Armada - The Spanish Armada
DYEAR=2009
DGENRE=Jazz
TTITLE0=On The Giving And Receiving
TTITLE1=Hotel by the Sea
TTITLE2=Laying Down My Arms
TTITLE3=Empty Packs
TTITLE4=Hospital Corners
TTITLE5=Day Break
TTITLE6=Marathon Arms
TTITLE7=Sober
TTITLE8=The Captain's Gone
TTITLE9=Homesick
TTITLE10=Lit by a Whale Oil Lamp
TTITLE11=Start Writing Up the Truce
EXTD=YEAR: 2009
EXTT0=
EXTT1=
EXTT2=
EXTT3=
EXTT4=
EXTT5=
EXTT6=
EXTT7=
EXTT8=
EXTT9=
EXTT10=
EXTT11=
PLAYORDER=
